<svg xmlns:mydata="http://www.w3.org/2000/svg" mydata:contrastcolor="ffffff" mydata:template="Contrast" mydata:presentation="2.5" mydata:layouttype="undefined" mydata:specialfontid="undefined" mydata:id1="658" mydata:id2="228" mydata:companyname="Fusha Sporti" mydata:companytagline="" version="1.1" xmlns="http://www.w3.org/2000/svg" xmlns:xlink="http://www.w3.org/1999/xlink" viewBox="0 -40 550 550">
<g data-paper-data="{&quot;fillRule&quot;:&quot;nonzero&quot;,&quot;fillRuleOriginal&quot;:&quot;nonzero&quot;,&quot;isIcon&quot;:true,&quot;iconStyle&quot;:&quot;standalone&quot;,&quot;selectedEffects&quot;:{&quot;container&quot;:&quot;hexagon_simple_outline3_sharp_rotated&quot;,&quot;transformation&quot;:&quot;&quot;,&quot;pattern&quot;:&quot;&quot;},&quot;bounds&quot;:{&quot;x&quot;:64.99999999999999,&quot;y&quot;:212.98121666824247,&quot;width&quot;:50.54945696498234,&quot;height&quot;:44.03756666351509},&quot;widthRatioIconToContainer&quot;:0.6493630892365786,&quot;heightRatioIconToContainer&quot;:0.4950375843581228,&quot;relativeBoundsIconToContainer&quot;:{&quot;top&quot;:-0.0037043300988930656,&quot;left&quot;:0},&quot;iconType&quot;:&quot;icon&quot;,&quot;rawIconId&quot;:&quot;25828353-7147-4b51-a983-760735c5f32c&quot;,&quot;suitableAsStandaloneIcon&quot;:true}">
<path d="M87.68985,227.11336l-1.89974,0.87201l-4.76491,-2.21117h-0.15572l-4.79605,2.21117l-1.89974,-0.87201l6.75808,-3.14546zM76.32257,228.35908l4.39119,-2.05545v1.77516l-2.3046,1.05887l-0.12457,0.18686v2.0866l-1.96202,0.9343zM81.14977,226.30363l4.39119,2.05545v1.74402l-4.39119,-2.02431zM73.86226,242.56039v-15.1356l1.99316,0.9343v4.32891l0.12457,0.18686l7.16294,3.30118v1.74402l-6.97608,-3.20775l-0.31143,0.18686v8.53324zM86.00812,230.10311v-1.74402l1.99316,-0.90315v1.71288zM85.26068,234.89916l-1.93088,0.87201l-6.72693,-3.08318l1.93088,-0.9343zM76.32257,235.24174l1.96202,0.9343v6.38436l-1.96202,0.87201zM83.57894,236.17603l1.96202,-0.9343v1.71288l-1.96202,0.9343zM106.37577,227.08221l-1.93088,0.84087l-4.76491,-2.18002h-0.18686l-4.79605,2.18002l-1.89974,-0.87201l6.78922,-3.11432zM97.06395,229.10652l-0.15572,0.18686v2.0866l-1.99316,0.9343v-3.98633l4.45348,-2.05545v1.77516zM104.25803,230.07196l-4.45348,-2.02431v-1.77516l4.42234,2.05545zM92.4859,233.62229v-6.22864l1.99316,0.9343v4.32891l0.12457,0.18686l9.62325,4.42234l0.03114,3.98633l-2.02431,-0.90315v-2.0866l-0.12457,-0.218zM106.6872,227.42479v1.74402l-1.99316,0.90315l-0.03114,-1.74402zM104.44489,236.86118l-9.21839,-4.20433l1.89974,-0.87201l9.24953,4.23548zM106.6872,242.59153l-6.88265,3.14546v-1.74402l4.73377,-2.21117l0.15572,-0.18686v-4.32891l1.99316,-0.90315zM103.0123,242.03095l-3.42575,1.55716l-6.78922,-3.11432l1.93088,-0.87201l4.76491,2.21117h0.18686l2.33574,-1.09001l1.93088,0.87201zM92.4859,242.59153v-1.77516l6.88265,3.17661v1.74402zM103.23434,256.58677c-0.01179,0.01767 -0.02413,0.03494 -0.03705,0.05179c-0.01292,0.01676 -0.02637,0.03315 -0.04036,0.04918c-0.01399,0.01593 -0.02849,0.03141 -0.04349,0.04643c-0.015,0.01493 -0.03048,0.0294 -0.04643,0.04341c-0.01595,0.01401 -0.03234,0.02747 -0.04918,0.04038c-0.01683,0.01291 -0.03407,0.02527 -0.0517,0.03709c-0.01764,0.01172 -0.03564,0.02289 -0.05402,0.03352c-0.01837,0.01062 -0.03707,0.0206 -0.0561,0.02995c-0.01903,0.00943 -0.03834,0.01822 -0.05794,0.02637c-0.0196,0.00806 -0.03944,0.01552 -0.05953,0.02239c-0.02009,0.00678 -0.04038,0.01291 -0.06088,0.01841c-0.02049,0.00549 -0.04114,0.0103 -0.06195,0.01442c-0.02081,0.00421 -0.04173,0.00769 -0.06276,0.01044c-0.02104,0.00275 -0.04213,0.00481 -0.0633,0.00618c-0.02117,0.00137 -0.04237,0.00206 -0.06359,0.00206h-24.30265c-0.02122,0 -0.04241,-0.00069 -0.06359,-0.00206c-0.02116,-0.00137 -0.04226,-0.00343 -0.0633,-0.00618c-0.02104,-0.00275 -0.04196,-0.00623 -0.06276,-0.01044c-0.02082,-0.00412 -0.04147,-0.00893 -0.06195,-0.01442c-0.0205,-0.00549 -0.04079,-0.01163 -0.06088,-0.01841c-0.02009,-0.00687 -0.03994,-0.01433 -0.05953,-0.02239c-0.0196,-0.00815 -0.03891,-0.01694 -0.05794,-0.02637c-0.01903,-0.00934 -0.03773,-0.01932 -0.0561,-0.02995c-0.01838,-0.01062 -0.03639,-0.02179 -0.05402,-0.03352c-0.01764,-0.01181 -0.03487,-0.02418 -0.0517,-0.03709c-0.01683,-0.01291 -0.03322,-0.02637 -0.04918,-0.04038c-0.01595,-0.01401 -0.03143,-0.02848 -0.04643,-0.04341c-0.015,-0.01502 -0.0295,-0.03049 -0.04349,-0.04643c-0.01398,-0.01603 -0.02744,-0.03242 -0.04036,-0.04918c-0.01291,-0.01685 -0.02526,-0.03411 -0.03705,-0.05179c-0.01179,-0.01758 -0.02298,-0.03558 -0.03359,-0.05398l-12.15131,-21.04673c-0.01062,-0.01837 -0.0206,-0.03708 -0.02995,-0.0561c-0.00943,-0.01903 -0.01822,-0.03834 -0.02637,-0.05794c-0.00806,-0.0196 -0.01552,-0.03945 -0.02239,-0.05954c-0.00678,-0.02009 -0.01291,-0.04038 -0.01841,-0.06087c-0.00549,-0.02049 -0.0103,-0.04114 -0.01442,-0.06195c-0.00421,-0.02081 -0.00769,-0.04173 -0.01044,-0.06276c-0.00275,-0.02103 -0.00481,-0.04214 -0.00618,-0.06331c-0.00137,-0.02117 -0.00206,-0.04236 -0.00206,-0.06358c0,-0.02122 0.00069,-0.04241 0.00206,-0.06358c0.00137,-0.02117 0.00343,-0.04227 0.00618,-0.06331c0.00275,-0.02103 0.00623,-0.04196 0.01044,-0.06276c0.00412,-0.02081 0.00893,-0.04146 0.01442,-0.06195c0.00549,-0.02049 0.01163,-0.04078 0.01841,-0.06087c0.00687,-0.02009 0.01433,-0.03994 0.02239,-0.05954c0.00815,-0.0196 0.01694,-0.03891 0.02637,-0.05794c0.00934,-0.01903 0.01932,-0.03773 0.02995,-0.0561l12.15131,-21.04673c0.01061,-0.01841 0.0218,-0.0364 0.03359,-0.05398c0.01179,-0.01767 0.02413,-0.03494 0.03705,-0.05179c0.01292,-0.01676 0.02637,-0.03315 0.04036,-0.04918c0.01399,-0.01593 0.02849,-0.03141 0.04349,-0.04643c0.015,-0.01493 0.03048,-0.0294 0.04643,-0.04341c0.01595,-0.01401 0.03234,-0.02747 0.04918,-0.04038c0.01683,-0.01291 0.03407,-0.02527 0.0517,-0.03709c0.01764,-0.01172 0.03564,-0.02289 0.05402,-0.03352c0.01837,-0.01062 0.03707,-0.0206 0.0561,-0.02995c0.01903,-0.00943 0.03834,-0.01822 0.05794,-0.02637c0.0196,-0.00806 0.03944,-0.01552 0.05953,-0.02239c0.02009,-0.00678 0.04038,-0.01291 0.06088,-0.01841c0.02049,-0.00549 0.04114,-0.0103 0.06195,-0.01442c0.02081,-0.00421 0.04173,-0.00769 0.06276,-0.01044c0.02104,-0.00275 0.04213,-0.00481 0.0633,-0.00618c0.02117,-0.00137 0.04237,-0.00206 0.06359,-0.00206h24.30265c0.02122,0 0.04241,0.00069 0.06359,0.00206c0.02116,0.00137 0.04226,0.00343 0.0633,0.00618c0.02104,0.00275 0.04196,0.00623 0.06276,0.01044c0.02082,0.00412 0.04147,0.00893 0.06195,0.01442c0.0205,0.00549 0.04079,0.01163 0.06088,0.01841c0.02009,0.00687 0.03994,0.01433 0.05953,0.02239c0.0196,0.00815 0.03891,0.01694 0.05794,0.02637c0.01903,0.00934 0.03773,0.01932 0.0561,0.02995c0.01838,0.01062 0.03639,0.02179 0.05402,0.03352c0.01764,0.01181 0.03487,0.02418 0.0517,0.03709c0.01683,0.01291 0.03322,0.02637 0.04918,0.04038c0.01595,0.01401 0.03143,0.02848 0.04643,0.04341c0.015,0.01502 0.0295,0.03049 0.04349,0.04643c0.01398,0.01603 0.02744,0.03242 0.04036,0.04918c0.01291,0.01685 0.02526,0.03411 0.03705,0.05179c0.01179,0.01758 0.02298,0.03558 0.03359,0.05398l12.15131,21.04673c0.01062,0.01837 0.0206,0.03708 0.02995,0.0561c0.00943,0.01903 0.01822,0.03834 0.02637,0.05794c0.00806,0.0196 0.01552,0.03945 0.02239,0.05954c0.00678,0.02009 0.01291,0.04038 0.01841,0.06087c0.00549,0.02049 0.0103,0.04114 0.01442,0.06195c0.00421,0.02081 0.00769,0.04173 0.01044,0.06276c0.00275,0.02103 0.00481,0.04214 0.00618,0.06331c0.00137,0.02117 0.00206,0.04236 0.00206,0.06358c0,0.02122 -0.00069,0.04241 -0.00206,0.06358c-0.00137,0.02117 -0.00343,0.04227 -0.00618,0.06331c-0.00275,0.02103 -0.00623,0.04196 -0.01044,0.06276c-0.00412,0.02081 -0.00893,0.04146 -0.01442,0.06195c-0.00549,0.02049 -0.01163,0.04078 -0.01841,0.06087c-0.00687,0.02009 -0.01433,0.03994 -0.02239,0.05954c-0.00815,0.0196 -0.01694,0.03891 -0.02637,0.05794c-0.00934,0.01903 -0.01932,0.03773 -0.02995,0.0561l-12.15131,21.04673c-0.01061,0.01841 -0.0218,0.0364 -0.03359,0.05398zM113.45493,235l-11.59011,-20.07466h-23.18016l-11.59011,20.07466l11.59011,20.07466h23.18016z" data-paper-data="{&quot;isPathIcon&quot;:true}" fill="#28d561">
</path>
</g>
</svg>